<svg xmlns="http://www.w3.org/2000/svg" width="110" height="38" viewBox="0 0 110 38">
    <g fill="none" fill-rule="evenodd">
        <g fill="#013F5F">
            <path d="M52.001.042c1.425-.202 2.652.335 3.67 1.36 2.971 2.994 5.133 6.52 6.59 10.49.899 2.455 1.429 4.99 1.348 6.815.033 6.174-1.993 10.765-5.209 14.88l-.285.36-.26.32c-1.084 1.33-2.252 2.563-3.877 3.275-.846.372-1.61.438-2.32-.203l-.075-.072c-.384-.377-.733-.395-1.085.016l-.048.059c-.663.848-1.547.763-2.36.378-4.742-2.244-7.835-5.906-9.037-11.112-1.133-4.91-.415-9.7 1.078-14.41l.18-.56.183-.558c.774-2.321 1.694-4.579 3.228-6.537l.482-.617.19-.24.096-.119.194-.235.198-.231c.734-.838 1.558-1.556 2.618-1.814l.146-.032c.537-.107 1.055-.265 1.568-.434l.92-.307c.613-.2 1.228-.382 1.867-.472zm-3.223 2.583c-.234.444-.508.924-.741 1.423-.043.092-.08.19-.113.292l-.064.206-.062.207c-.095.307-.202.594-.408.757-.49.387-.495.734-.384 1.151l.034.122.06.19c.102.326.203.836.038 1.033-.434.516-.337.873-.086 1.257l.073.106.119.163.084.112c.224.302.345.945.178 1.238l-.203.36-.066.12-.057.11-.047.1c-.156.351-.112.525.211.786l.095.074.11.079.123.086.293.196c.08.054.154.119.231.192l.16.154.089.083c-.038.036-.071.07-.102.104l-.085.093c-.054.056-.102.1-.16.12-.96.352-.956.79-.262 1.5.187.191.195.61.173.983l-.018.248c-.033.403-.08.805-.129 1.208l-.1.804c-.08.67-.149 1.34-.157 2.012-.006.427.062.858.138 1.288l.077.43c.087.5.158.997.11 1.486l-.02.18-.026.177-.05.337-.023.165c-.072.573-.053 1.11.48 1.612.087.081.085.37.013.496-.534.925-.29 1.867.04 2.684l.079.186.078.18.19.43.07.16c.096.235.203.465.316.693l.17.34.26.513c.372.741.71 1.501.805 2.375.01.1.112.192.233.28l.16.115c.054.038.105.076.148.115.023-.035.049-.07.076-.106l.128-.16c.083-.107.15-.212.143-.312-.014-.191-.02-.389-.024-.59l-.005-.757c-.008-.757-.055-1.497-.39-2.053-1.449-2.396-1.554-4.96-1.194-7.488l.056-.37c.33-2.07.754-4.124 1.188-6.177l.434-2.053c.36-1.712.708-3.425.996-5.149.04-.24.041-.492.032-.75l-.017-.425c-.018-.496-.01-1.003.229-1.481.016-.033-.003-.08-.028-.133l-.04-.081c-.011-.027-.02-.055-.025-.08-.1-.663-.164-1.334-.3-1.99-.057-.278-.2-.68-.406-.761-.544-.218-1.1-.406-1.661-.587l-.844-.27-.423-.138zm24.395 8.397c2.122-.694 4.298-.712 6.396.255 1.73.797 2.589 2.248 2.965 4.062.116.562-.06.881-.68.87-.207-.003-.416-.001-.624.001l-.624.01c-.417.003-.832 0-1.244-.04-.292-.028-.703-.317-.806-.586-.654-1.711-3.631-1.812-4.546-.611-.365.479-.577 1.38-.383 1.91.192.523.933 1.017 1.524 1.175.53.141 1.079.208 1.632.262l.83.077c.277.027.553.059.826.102 2.356.37 3.906 1.763 4.225 3.738.44 2.728-.494 5.022-2.712 6.057-2.894 1.35-5.833 1.417-8.643-.326-1.434-.89-2.246-2.574-2.102-4.34l.434-.001 1.275-.01c.56 0 1.11.006 1.66.038.264.015.594.314.748.571.813 1.363 2.522 1.931 3.963 1.241.879-.421 1.487-1.064 1.333-2.144-.129-.907-.774-1.21-1.49-1.376l-.16-.035-.162-.032c-1.02-.189-2.067-.256-3.078-.486l-.354-.084-.234-.06-.117-.03-.232-.066c-1.271-.375-2.425-.982-2.959-2.381-1.162-3.047-.287-6.575 3.339-7.761zm-49.402-.133c1.899-.507 3.765-.454 5.636.079 2.027.577 3.523 2.431 3.748 4.834.078.834.099 1.673.111 2.514l.014 1.008c.006.336.013.672.026 1.008.027.728-.327.949-.959.95h-.071c-.526-.011-1.053-.015-1.58-.015l-2.37.007v.008c-1.026 0-2.051.012-3.077.004l-.77-.01c-.709-.014-1.013.288-.986 1.006l.021.52.012.207c.063.93.257 1.81 1.197 2.324 1.165.636 2.404.56 3.598.002.242-.114.453-.318.645-.514.075-.078.148-.172.22-.27l.21-.296c.157-.216.317-.399.498-.421.985-.122 2-.05 2.995.04.13.012.321.589.294.887-.16 1.756-1.046 3.098-2.643 3.74-2.454.988-5 1.047-7.519.205-2.105-.704-3.269-2.353-3.41-4.48-.188-2.833-.152-5.692-.017-8.53.112-2.351 1.913-4.204 4.177-4.807zM5.474 4.964c2.312-.423 4.615-.343 6.856.458 2.191.783 3.752 3.303 3.467 5.66-.03.238-.374.565-.621.619-.258.056-.527.061-.798.055l-.49-.016-.162-.003h-.282l-.26-.002-.153-.005-.14-.007-.126-.01c-.461-.05-.654-.195-.833-.617l-.046-.117-.047-.13-.073-.221-.138-.446c-.34-1.118-1.237-1.595-2.275-1.731-.851-.113-1.738-.137-2.588-.028-1.683.216-2.595 1.321-2.634 3.121-.031 1.435-.018 2.87-.011 4.305l.003 1.076h-.006l.003.649.012 1.297c.005.648.008 1.297-.006 1.944l-.019.648c-.125 3.222 1.291 4.228 3.977 4.102l.24-.014.247-.02.254-.025.129-.014c2.307-.272 3.132-1.4 3.139-3.782v-.543l-.005-.378-.008-.25-.01-.152-.005-.071-.014-.134c-.076-.622-.288-.86-.863-.953l-.125-.017-.135-.014-.146-.01-.159-.007-.26-.008-1.137-.007-.21-.005-.183-.01-.109-.011-.097-.014c-.325-.057-.465-.191-.526-.513l-.016-.097-.011-.107-.009-.12-.005-.13-.005-.22-.002-.537.002-.544.006-.228.007-.137.01-.126.007-.059.015-.11c.075-.452.266-.618.749-.679l.117-.012.127-.01c.023 0 .045-.002.068-.003l.145-.005.327-.005.378-.001c1.276-.001 2.551.014 3.826.005l.956-.013c.742-.015 1.078.242 1.06 1.033-.014.58-.021 1.16-.026 1.74l-.01 1.74c-.009 1.161-.024 2.321-.08 3.48-.148 3.027-2.29 5.181-5.266 5.568-2.293.297-4.555.357-6.76-.449C1.904 27.928.726 26.61.441 24.701c-.268-1.796-.344-3.63-.389-5.45-.062-2.53-.08-5.066.002-7.596l.01-.264.014-.263.017-.262.021-.261c.178-1.95.76-3.756 2.716-4.806.803-.431 1.738-.67 2.64-.835zm94.068 7.308l.065-.054c2.094-1.779 4.5-2.102 7.018-1.15 1.87.706 2.792 2.311 3.013 4.218.197 1.708.262 3.435.308 5.16l.03 1.148c.044 1.758.007 3.518.014 5.277l.01 1.055c.012.746-.195 1.061-.99 1.082l-.782.018-.38.004-.257-.004-.157-.005-.075-.004-.142-.01-.132-.014-.122-.018c-.59-.1-.84-.361-.944-.986l-.019-.13-.008-.069-.014-.145-.011-.156-.009-.166-.006-.178-.006-.29-.003-.542v-.35c0-2.532.007-5.065-.006-7.598-.003-.525-.025-1.06-.13-1.571-.398-1.917-1.29-2.625-3.098-2.515-1.431.087-2.476 1.22-2.546 2.945-.047 1.164-.048 2.33-.044 3.495l.006 1.399v.699c-.003 1.436-.025 2.874-.005 4.31l.018.861c.02.772-.247 1.053-.95 1.017L99.111 29c-.531-.043-1.072-.055-1.604-.019l-.265.023c-.87.088-1.18-.199-1.186-1.082v-.087c.037-2.487.032-4.975.02-7.463l-.016-2.985c-.006-1.314-.38-2.418-1.736-2.94-1.578-.608-3.444.308-3.864 1.967-.136.537-.188 1.11-.191 1.666-.016 2.697-.032 5.394-.013 8.091l.016 1.618c.01.868-.21 1.21-1.077 1.223l-.65-.006-.297-.006-.184-.005-.172-.007-.16-.008-.15-.012-.14-.014-.13-.018-.119-.021c-.555-.113-.782-.371-.875-.979l-.017-.13-.014-.142-.01-.152-.01-.163-.007-.267-.005-.399-.002-.565c-.002-3.715.013-7.43.002-11.145l-.014-2.787c-.006-.94.253-1.405 1.237-1.268.218.03.442.025.664.012l.376-.022.138-.005.134-.001c.6.008 1.095.181 1.193 1.046.006.05.053.096.117.147l.13.099c.032.024.064.05.095.078 1.271-1.057 2.655-1.82 4.338-1.716 1.301.08 2.52.42 3.415 1.438l.094.111c.462.565.797.63 1.37.167zm-72.555 1.85c-2.07-.2-3.165.529-3.425 2.303l-.023.166-.018.153-.012.14-.006.128c-.012.55.174.746.751.808l.135.012.148.008.162.005.087.001.52.003 1.038-.002v-.013c.146 0 .292.003.438.008l.438.014c.439.012.875.013 1.3-.06.32-.053.829-.525.815-.783l-.011-.188-.016-.184c-.129-1.337-.601-2.354-2.321-2.52z" transform="translate(-30 -21) translate(30 21)"/>
        </g>
    </g>
</svg>
