<?xml version="1.0" encoding="utf-8"?>
<!-- Generator: Adobe Illustrator 24.3.0, SVG Export Plug-In . SVG Version: 6.00 Build 0)  -->
<svg version="1.1" id="Calque_1" xmlns="http://www.w3.org/2000/svg" xmlns:xlink="http://www.w3.org/1999/xlink" x="0px" y="0px"
	 viewBox="0 0 1000 1000" style="enable-background:new 0 0 1000 1000;" xml:space="preserve">
<style type="text/css">
	.st0{opacity:0.7;fill:#FFFFFF;}
	.st1{fill:#B0E2DF;}
	.st2{fill:#00ADA7;}
</style>
<path class="st0" d="M998.7,500c0,141.6-59,269.4-153.8,360.2C755.3,946,633.8,998.7,500,998.7S244.7,946,155.1,860.2
	C60.3,769.4,1.3,641.6,1.3,500C1.3,224.6,224.6,1.3,500,1.3S998.7,224.6,998.7,500z"/>
<g>
	<path class="st1" d="M633,302.4c-36.8-36.8-81.1-55.1-133.1-55.1c-51.9,0-96.3,18.4-133.1,55.1c-36.7,36.7-55.1,81.1-55.1,133
		c0,52,18.4,96.3,55.1,133c36.8,36.8,81.1,55.1,133.1,55.1c52,0,96.3-18.3,133.1-55.1c36.8-36.7,55.1-81.1,55.1-133
		C688.2,383.5,669.8,339.1,633,302.4z"/>
	<path class="st1" d="M843.3,822.3c-1.1-16.5-3.4-34.3-6.8-53.4c-3.4-19.1-7.8-36.9-13-53.2c-5.2-16.3-12.2-32.2-21.1-47.8
		c-8.8-15.5-18.9-28.7-30.4-39.7c-11.4-11-25.4-19.7-41.9-26.2c-16.5-6.5-34.7-9.8-54.6-9.8c-3.2,0-10.3,3.5-21.1,10.6
		c-10.8,7-22.7,14.9-35.8,23.5c-13.1,8.7-30.5,16.5-52.4,23.5c-21.9,7-43.9,10.6-66.2,10.6c-22.2,0-44.2-3.5-66.1-10.6
		c-21.9-7-39.4-14.9-52.5-23.5c-13.1-8.6-25-16.5-35.8-23.5c-10.8-7-17.8-10.6-21.1-10.6c-19.9,0-38.2,3.3-54.7,9.8
		c-16.5,6.5-30.5,15.3-41.9,26.2c-11.4,10.9-21.6,24.2-30.4,39.7c-8.8,15.5-15.8,31.5-21,47.8c-5.2,16.3-9.6,34.1-13,53.2
		c-3.4,19.1-5.7,36.9-6.9,53.4c-0.9,12.4-1.4,25-1.6,37.9C244.7,946,366.2,998.7,500,998.7S755.3,946,844.9,860.2
		C844.7,847.4,844.1,834.7,843.3,822.3z"/>
</g>
<g>
	<path class="st2" d="M500,1000.2c-67.5,0-133-13.2-194.7-39.3c-59.6-25.2-113.1-61.3-159-107.2c-45.9-45.9-82-99.4-107.2-159
		C13,633-0.2,567.5-0.2,500S13,367,39.1,305.3c25.2-59.6,61.3-113.1,107.2-159c45.9-45.9,99.4-82,159-107.2
		C367,13,432.5-0.2,500-0.2S633,13,694.7,39.1c59.6,25.2,113.1,61.3,159,107.2s82,99.4,107.2,159c26.1,61.7,39.3,127.2,39.3,194.7
		S987,633,960.9,694.7c-25.2,59.6-61.3,113.1-107.2,159s-99.4,82-159,107.2C633,987,567.5,1000.2,500,1000.2z M500,41.8
		C247.3,41.8,41.8,247.3,41.8,500S247.3,958.2,500,958.2c252.7,0,458.2-205.6,458.2-458.2S752.7,41.8,500,41.8z"/>
</g>
</svg>
